# xmcd CD database file
#
# Track frame offsets:
#	150
#	16050
#	32750
#	46160
#	63610
#	76075
#	92645
#	106232
#	122550
#	137440
#	149625
#	162212
#	175202
#	196395
#	208142
#	219410
#	234577
#	246532
#	260017
#	278772
#	291577
#	300817
#	313760
#	324207
#	336727
#
# Disc length: 4693 seconds
#
# Revision: 2
# Processed by: cddbd v1.5.1PL2 Copyright (c) Steve Scherf et al.
# Submitted via: CDex 1.51
#
DISCID=71125319
DTITLE=Various Artist - DE Nederlandstalige top 100 deel 3  CD 2
DYEAR=1998
DGENRE=Miscellaneous
TTITLE0=Clouseau - Zie me graag
TTITLE1=Rob de Nijs - Banger hart
TTITLE2=Edsilla - Hemel and aarde
TTITLE3=Skik - Op fietse
TTITLE4=Boudewijn de Groot and Nico Haak - Tante Julia
TTITLE5=Conny Stuart - Wat voor weer zou het zijn
TTITLE6=DRS.P - Koolraap and lof
TTITLE7=Andre van Duin - Ayobee
TTITLE8=Frank and Ronald - Geld maakt niet gelukkig
TTITLE9=Frans Bauer - Waarom heb jij mij verlaten
TTITLE10=Bert Heerink - Julie July
TTITLE11=Gerard Joling - Liefde op het eerste gezicht
TTITLE12=Goede doel - Nooduitgang
TTITLE13=Gonnie Baars - Alle leuke jongens
TTITLE14=Willy and willeke Alberti - Dat afgezaagde zinnetje
TTITLE15=4 Fun - Levenslang
TTITLE16=Herman Brood and De Breedbekkikkers - Maak van uw scheet
TTITLE17=Gerit Dekzeil - Ik ben Gerrit
TTITLE18=Is ook schitterend - Voltooid verleden tijd
TTITLE19=Johan and De groothandel - As Dick me hullep nodig heb
TTITLE20=Johnny and Rijk -  De bostella
TTITLE21=Lenny Kuhr m.m.v. Les Poppys - Visite
TTITLE22=Linda,Roos and Jessica - Ademnood
TTITLE23=Mouth and Macneal - Ik zie een ster
TTITLE24=Andre Rieu - The last rose
EXTD=YEAR: 1998
EXTT0=
EXTT1=
EXTT2=
EXTT3=
EXTT4=
EXTT5=
EXTT6=
EXTT7=
EXTT8=
EXTT9=
EXTT10=
EXTT11=
EXTT12=
EXTT13=
EXTT14=
EXTT15=
EXTT16=
EXTT17=
EXTT18=
EXTT19=
EXTT20=
EXTT21=
EXTT22=
EXTT23=
EXTT24=
PLAYORDER=
